Coordinates
version=1
nRows=12
nColumns=24
inDegrees=yes

Units are S.I. units (second, meters, Newtons, ...)
Angles are in degrees.

endheader
time	pelvis_tilt	pelvis_list	pelvis_rotation	pelvis_tx	pelvis_ty	pelvis_tz	hip_flexion_r	hip_adduction_r	hip_rotation_r	knee_angle_r	ankle_angle_r	subtalar_angle_r	mtp_angle_r	hip_flexion_l	hip_adduction_l	hip_rotation_l	knee_angle_l	ankle_angle_l	subtalar_angle_l	mtp_angle_l	lumbar_extension	lumbar_bending	lumbar_rotation
      4.01000000	    -19.29565952	     -3.71156905	      1.74936694	     -1.19614494	     -0.04834198	     -0.36614031	     47.72294581	      1.69108570	    -18.33043209	    -13.43067071	     -1.77320243	     -0.69610183	     20.08205679	      0.04388025	     -3.62935230	     -5.89058950	    -16.59266014	      9.43226836	      9.13411006	      4.89480371	     20.44251402	      0.62188550	    -18.46474588
      4.01500000	    -19.23249536	     -3.95857071	      1.69845856	     -1.18779188	     -0.04938405	     -0.36542530	     47.70321377	      1.98939161	    -18.03128333	    -14.11397493	     -2.36950855	     -1.72439908	     20.14174900	     -0.19377280	     -4.08044735	     -6.06354576	    -17.28194860	      8.85495140	      9.54830017	      5.45812327	     20.51364263	      0.91058078	    -18.50778277
      4.02000000	    -19.23530492	     -4.24856228	      1.80549583	     -1.17946416	     -0.05039753	     -0.36493681	     47.75994310	      2.18036704	    -17.93581032	    -14.87194681	     -3.06361734	     -2.76612975	     20.11460031	     -0.28367956	     -4.55451723	     -5.87966866	    -18.05889242	      8.23809994	      9.85547775	      5.74182427	     20.65808077	      1.18402097	    -18.76884588
      4.02500000	    -19.24677009	     -4.55691944	      1.79944050	     -1.17106819	     -0.05141642	     -0.36426639	     47.82970923	      2.49912825	    -17.61978017	    -15.64420031	     -3.95020520	     -4.14271381	     20.05540248	     -0.35294074	     -5.07281399	     -5.92469326	    -18.87750827	      7.55185816	     10.24767877	      6.15579623	     20.81742556	      1.51537561	    -18.90526028
      4.03000000	    -19.24205305	     -4.83131475	      1.65700208	     -1.16264237	     -0.05245476	     -0.36341550	     47.92845526	      2.90204643	    -17.12283536	    -16.51453571	     -4.89349710	     -5.67075853	     19.93522788	     -0.44359026	     -5.58033545	     -6.25863291	    -19.70424669	      6.74638436	     10.69049125	      6.97608660	     20.95153037	      1.86734609	    -18.89191674
      4.03500000	    -19.27843807	     -5.16809691	      1.62046725	     -1.15423175	     -0.05341233	     -0.36268484	     48.06829894	      3.27620070	    -16.71168849	    -17.41271618	     -5.85937339	     -7.27914237	     19.61859317	     -0.40968386	     -6.14847728	     -6.37376088	    -20.61558224	      5.82023377	     11.02724266	      7.77879056	     21.13474470	      2.23816261	    -18.97607864
      4.04000000	    -19.32601138	     -5.50528562	      1.53589486	     -1.14584365	     -0.05435688	     -0.36188796	     48.26440345	      3.69136584	    -16.21507115	    -18.41181515	     -6.79700865	     -8.95165190	     19.04340153	     -0.33532266	     -6.72606794	     -6.53715510	    -21.56778536	      4.80764858	     11.35796204	      8.69261922	     21.32176494	      2.62731127	    -19.04574802
      4.04500000	    -19.32164301	     -5.81667424	      1.48207665	     -1.13752935	     -0.05514967	     -0.36106167	     48.44232508	      4.08089878	    -15.65415725	    -19.52830825	     -7.58490659	    -10.52294724	     17.65275631	     -0.27720006	     -7.28872550	     -6.65741949	    -22.49279934	      3.51794917	     11.58072296	     10.38247770	     21.43810451	      2.96896407	    -19.16148943
      4.05000000	    -19.42259061	     -6.19254448	      1.37441956	     -1.12916695	     -0.05606018	     -0.36025716	     48.74047846	      4.55389937	    -15.07113371	    -20.65556554	     -8.27623297	    -12.14783500	     16.80155177	     -0.02413125	     -7.91947885	     -6.84949540	    -23.63620551	      2.34207728	     11.84868065	     11.06791407	     21.67535428	      3.40421415	    -19.24776533
      4.05500000	    -19.39838726	     -6.52395201	      1.30211681	     -1.12090745	     -0.05671890	     -0.35940649	     48.95252828	      4.99030305	    -14.48444211	    -21.95303480	     -8.67219668	    -13.40464214	     14.38970755	      0.11783082	     -8.51038227	     -6.95040942	    -24.66404933	      0.73584766	     11.83860478	     13.16136123	     21.75663815	      3.77660545	    -19.31067603
      4.06000000	    -19.48274888	     -6.86895302	      1.16395333	     -1.11266356	     -0.05751612	     -0.35848033	     49.27968382	      5.47935326	    -13.91323967	    -23.21464847	     -8.99275561	    -14.73924039	     13.09640065	      0.46630865	     -9.14129418	     -7.19358809	    -25.92468283	     -0.75510663	     12.07743632	     14.19257893	     21.94698044	      4.18353520	    -19.31416257
      4.06500000	    -19.52756950	     -7.22683663	      1.08478770	     -1.10434914	     -0.05820415	     -0.35756038	     49.53679368	      5.97076828	    -13.30254184	    -24.49238483	     -8.98176667	    -15.87914712	     11.27205964	      0.81430272	     -9.78805803	     -7.32553352	    -27.15491627	     -2.51413141	     12.10622613	     15.82601509	     22.11652240	      4.56594306	    -19.47411107
